<svg fill="none" height="48" viewBox="0 0 48 48" width="48" xmlns="http://www.w3.org/2000/svg"><path d="m0 0h48v48h-48z" fill="#fff" fill-opacity=".01"/><path d="m5 35.7622c1.92886 1.0664 15.8914 9.1151 25.8199 2.9118 9.9284-6.2033 9.3807-16.8907 9.3807-21.788.8994-1.8842 2.7994-2.8421 2.7994-7.9422-1.8663 1.724-3.7213 2.3106-5.565 1.7598-1.8063-2.75403-4.2915-3.97213-7.4556-3.65426-4.7461.4768-6.4825 5.13316-5.9715 11.15736-7.318 3.7007-13.0564-2.6827-16.01372-7.5031-.98811 3.7963-1.94088 8.354 0 13.3959 1.29392 3.3612 4.40432 6.2029 9.33122 8.5251-4.9931 2.7062-9.10158 3.752-12.3254 3.1376z" fill="#2f88ff" stroke="#000" stroke-linejoin="round" stroke-width="4"/></svg>